<svg xmlns="http://www.w3.org/2000/svg" viewBox="0 0 1440 522">
  <!-- Horizontal lockup (guide s17 primary): approved logo-mark + Inter Medium wordmark.
       Mark 314px block, text ink 810.5x165.5 (scale 1.32), gap 107, clear space 104 (2X, s18). -->
  <g transform="translate(5 5)">
    <path d="M 406 211 V 158 A 52 52 0 0 0 354 106 H 158 A 52 52 0 0 0 106 158 V 354 A 52 52 0 0 0 158 406 H 354 A 52 52 0 0 0 406 354 V 301" fill="none" stroke="#F3F1EB" stroke-width="14"
          stroke-linecap="round" stroke-linejoin="round"/>
    <circle cx="250" cy="256" r="26" fill="#FF6848"/>
  </g>
  <g transform="translate(254.4 -414.83) scale(1.32)">
    <path d="M292.23 499.04Q292.23 514.55 286.56 525.69Q280.89 536.82 271.03 542.8Q261.17 548.79 248.64 548.79Q236.06 548.79 226.21 542.8Q216.35 536.82 210.67 525.66Q205 514.51 205 499.04Q205 483.54 210.67 472.4Q216.35 461.27 226.21 455.29Q236.06 449.3 248.64 449.3Q261.17 449.3 271.03 455.29Q280.89 461.27 286.56 472.4Q292.23 483.54 292.23 499.04ZM277.77 499.04Q277.77 487.22 273.96 479.12Q270.15 471.01 263.56 466.82Q256.96 462.64 248.64 462.64Q240.27 462.64 233.7 466.82Q227.13 471.01 223.32 479.12Q219.52 487.22 219.52 499.04Q219.52 510.87 223.32 518.97Q227.13 527.08 233.7 531.27Q240.27 535.45 248.64 535.45Q256.96 535.45 263.56 531.27Q270.15 527.08 273.96 518.97Q277.77 510.87 277.77 499.04ZM309.26 574.7V474.84H323.06V486.61H324.24Q325.47 484.34 327.79 481.36Q330.11 478.38 334.22 476.14Q338.33 473.89 345.1 473.89Q353.89 473.89 360.79 478.34Q367.7 482.78 371.64 491.15Q375.59 499.52 375.59 511.29Q375.59 523.06 371.67 531.46Q367.74 539.85 360.89 544.36Q354.03 548.88 345.24 548.88Q338.62 548.88 334.43 546.66Q330.25 544.44 327.89 541.46Q325.52 538.48 324.24 536.16H323.39V574.7ZM323.11 511.15Q323.11 518.81 325.33 524.58Q327.55 530.35 331.76 533.58Q335.97 536.82 342.07 536.82Q348.41 536.82 352.66 533.44Q356.92 530.06 359.11 524.25Q361.31 518.43 361.31 511.15Q361.31 503.96 359.16 498.24Q357.01 492.52 352.73 489.21Q348.45 485.9 342.07 485.9Q335.92 485.9 331.69 489.07Q327.46 492.24 325.28 497.91Q323.11 503.58 323.11 511.15ZM422.73 548.93Q412 548.93 404.27 544.32Q396.54 539.71 392.35 531.31Q388.17 522.92 388.17 511.62Q388.17 500.46 392.35 491.95Q396.54 483.44 404.08 478.67Q411.62 473.89 421.74 473.89Q427.89 473.89 433.65 475.92Q439.42 477.96 444.01 482.31Q448.6 486.66 451.24 493.58Q453.89 500.51 453.89 510.39V515.4H396.16V504.81H440.04Q440.04 499.23 437.77 494.91Q435.5 490.58 431.41 488.08Q427.32 485.57 421.83 485.57Q415.88 485.57 411.46 488.48Q407.03 491.39 404.65 496.04Q402.26 500.7 402.26 506.14V514.41Q402.26 521.69 404.84 526.8Q407.41 531.91 412.05 534.58Q416.68 537.25 422.87 537.25Q426.89 537.25 430.2 536.09Q433.51 534.93 435.92 532.61Q438.34 530.3 439.61 526.89L452.99 529.31Q451.38 535.22 447.25 539.64Q443.11 544.06 436.89 546.49Q430.68 548.93 422.73 548.93ZM483.77 504.34V547.46H469.64V474.84H483.21V486.66H484.1Q486.61 480.89 491.98 477.39Q497.34 473.89 505.52 473.89Q512.95 473.89 518.52 476.99Q524.1 480.08 527.18 486.18Q530.25 492.28 530.25 501.27V547.46H516.11V502.97Q516.11 495.07 512 490.61Q507.89 486.14 500.7 486.14Q495.78 486.14 491.98 488.26Q488.17 490.39 485.97 494.48Q483.77 498.57 483.77 504.34ZM615.83 481.22Q614.46 476.92 612.17 473.49Q609.87 470.06 606.71 467.63Q603.54 465.19 599.49 463.91Q595.45 462.64 590.63 462.64Q582.45 462.64 575.88 466.85Q569.31 471.05 565.5 479.16Q561.69 487.27 561.69 499Q561.69 510.77 565.52 518.9Q569.35 527.04 576.02 531.24Q582.69 535.45 591.2 535.45Q599.09 535.45 604.98 532.24Q610.87 529.02 614.1 523.13Q617.34 517.25 617.34 509.26L621.13 509.97H593.42V497.91H631.48V508.93Q631.48 521.13 626.3 530.09Q621.13 539.05 612.02 543.92Q602.92 548.79 591.2 548.79Q578.05 548.79 568.15 542.73Q558.24 536.68 552.71 525.55Q547.18 514.41 547.18 499.09Q547.18 487.51 550.39 478.29Q553.61 469.07 559.45 462.61Q565.29 456.16 573.21 452.73Q581.13 449.3 590.53 449.3Q598.38 449.3 605.17 451.62Q611.95 453.94 617.27 458.19Q622.59 462.45 626.09 468.29Q629.59 474.13 630.82 481.22ZM679.47 548.93Q669.26 548.93 661.65 544.25Q654.03 539.57 649.83 531.15Q645.62 522.73 645.62 511.48Q645.62 500.18 649.83 491.72Q654.03 483.25 661.65 478.57Q669.26 473.89 679.47 473.89Q689.68 473.89 697.3 478.57Q704.91 483.25 709.12 491.72Q713.33 500.18 713.33 511.48Q713.33 522.73 709.12 531.15Q704.91 539.57 697.3 544.25Q689.68 548.93 679.47 548.93ZM679.52 537.06Q686.14 537.06 690.49 533.56Q694.84 530.06 696.94 524.25Q699.05 518.43 699.05 511.43Q699.05 504.48 696.94 498.64Q694.84 492.8 690.49 489.26Q686.14 485.71 679.52 485.71Q672.85 485.71 668.48 489.26Q664.11 492.8 662 498.64Q659.9 504.48 659.9 511.43Q659.9 518.43 662 524.25Q664.11 530.06 668.48 533.56Q672.85 537.06 679.52 537.06ZM750.21 549.07Q743.3 549.07 737.72 546.49Q732.14 543.92 728.9 539Q725.67 534.08 725.67 526.94Q725.67 520.79 728.03 516.82Q730.39 512.85 734.41 510.53Q738.43 508.22 743.4 507.04Q748.36 505.85 753.51 505.24Q760.04 504.48 764.11 503.99Q768.17 503.49 770.02 502.35Q771.86 501.22 771.86 498.67V498.34Q771.86 492.14 768.38 488.74Q764.91 485.33 758.05 485.33Q750.91 485.33 746.82 488.48Q742.73 491.62 741.17 495.45L727.89 492.43Q730.25 485.81 734.81 481.72Q739.38 477.63 745.34 475.76Q751.29 473.89 757.86 473.89Q762.21 473.89 767.11 474.91Q772 475.92 776.28 478.62Q780.56 481.31 783.3 486.3Q786.04 491.29 786.04 499.23V547.46H772.24V537.53H771.67Q770.3 540.27 767.56 542.92Q764.82 545.57 760.51 547.32Q756.21 549.07 750.21 549.07ZM753.28 537.72Q759.14 537.72 763.33 535.4Q767.51 533.09 769.71 529.33Q771.91 525.57 771.91 521.27V511.91Q771.15 512.66 769 513.3Q766.85 513.94 764.11 514.39Q761.36 514.84 758.76 515.19Q756.16 515.55 754.41 515.78Q750.3 516.3 746.92 517.53Q743.54 518.76 741.53 521.05Q739.52 523.35 739.52 527.13Q739.52 532.38 743.4 535.05Q747.27 537.72 753.28 537.72ZM819 450.63V547.46H804.86V450.63Z" fill="#F3F1EB"/>
  </g>
</svg>
